<?xml version="1.0" encoding="iso-8859-1"?>
<!-- Uploaded to: SVG Repo, www.svgrepo.com, Generator: SVG Repo Mixer Tools -->
<!DOCTYPE svg PUBLIC "-//W3C//DTD SVG 1.1//EN" "http://www.w3.org/Graphics/SVG/1.1/DTD/svg11.dtd">
<svg fill="#000000" height="800px" width="800px" version="1.1" id="Capa_1" xmlns="http://www.w3.org/2000/svg" xmlns:xlink="http://www.w3.org/1999/xlink" 
	 viewBox="0 0 345.01 345.01" xml:space="preserve">
<g>
	<path d="M210.486,277.453h-12.432v-27.624c0-4.962-4.514-9.376-9.476-9.376h-32.141c-4.962,0-9.383,4.414-9.383,9.376v27.624
		h-12.53c-2.933,0-5.395,1.132-6.586,3.42c-1.191,2.288-0.897,4.972,0.786,7.375l37.389,53.308c1.551,2.213,3.88,3.454,6.39,3.454
		c2.511,0,4.84-1.284,6.391-3.497l37.391-53.377c1.684-2.403,1.977-4.972,0.787-7.26
		C215.881,278.588,213.42,277.453,210.486,277.453z"/>
	<path d="M289.02,95.609c1.955-6.746,2.943-13.723,2.943-20.809c0-41.245-33.555-74.801-74.8-74.801
		c-17.158,0-33.92,5.958-47.198,16.776c-11.879,9.679-20.542,22.856-24.724,37.474c-1.86-0.183-3.715-0.275-5.55-0.275
		c-25.524,0-47.886,16.941-55.082,40.982c-4.268-0.995-8.633-1.497-13.033-1.497c-31.703,0-57.495,25.794-57.495,57.496
		c0,31.703,25.792,57.496,57.495,57.496h201.86c31.702,0,57.494-25.794,57.494-57.496C330.929,124.911,313.617,102.48,289.02,95.609
		z"/>
</g>
</svg>