<?xml version="1.0" encoding="iso-8859-1"?>
<!-- Uploaded to: SVG Repo, www.svgrepo.com, Generator: SVG Repo Mixer Tools -->
<!DOCTYPE svg PUBLIC "-//W3C//DTD SVG 1.1//EN" "http://www.w3.org/Graphics/SVG/1.1/DTD/svg11.dtd">
<svg fill="#000000" height="800px" width="800px" version="1.1" id="Capa_1" xmlns="http://www.w3.org/2000/svg" xmlns:xlink="http://www.w3.org/1999/xlink" 
	 viewBox="0 0 370.126 370.126" xml:space="preserve">
<g>
	<path d="M142.047,176.296c48.594,0,88.128-39.542,88.128-88.146C230.174,39.544,190.64,0,142.047,0
		C93.444,0,53.903,39.544,53.903,88.149C53.903,136.754,93.444,176.296,142.047,176.296z"/>
	<path d="M267.212,185.921c-15.334,0-29.692,4.242-41.979,11.6c-0.191-0.006-0.383-0.023-0.574-0.023H59.419
		c-10.71,0-20.73,8.257-22.81,18.797l-15.23,77.209c-1.969,9.978,2.857,22.581,10.99,28.692
		c2.605,1.957,64.316,47.931,109.67,47.931c27.653,0,61.77-17.39,84.432-31.143c12.012,6.911,25.916,10.887,40.741,10.887
		c45.201,0,81.974-36.773,81.974-81.975C349.186,222.694,312.412,185.921,267.212,185.921z M267.212,319.87
		c-28.659,0-51.974-23.315-51.974-51.975c0-28.659,23.315-51.975,51.974-51.975s51.974,23.316,51.974,51.975
		C319.186,296.555,295.87,319.87,267.212,319.87z"/>
	<path d="M285.366,256.497h-38c-5.514,0-10,4.486-10,10v2c0,5.514,4.486,10,10,10h38c5.514,0,10-4.486,10-10v-2
		C295.366,260.983,290.88,256.497,285.366,256.497z"/>
</g>
</svg>